<?xml version="1.0"?>
<svg xmlns:rdf="http://www.w3.org/1999/02/22-rdf-syntax-ns#" xmlns="http://www.w3.org/2000/svg" xmlns:cc="http://creativecommons.org/ns#" xmlns:xlink="http://www.w3.org/1999/xlink" xmlns:dc="http://purl.org/dc/elements/1.1/" xmlns:svg="http://www.w3.org/2000/svg" id="svg2" viewBox="0 0 764.59 390.99" version="1.1">
  <defs id="defs4">
    <linearGradient id="linearGradient3035" y2="545.8" gradientUnits="userSpaceOnUse" x2="523.26" gradientTransform="matrix(1.7227 0 0 1.7673 -281.65 -88.927)" y1="564.46" x1="518.64">
      <stop id="stop3534" stop-color="#fff" offset="0"/>
      <stop id="stop3536" stop-color="#fff" stop-opacity="0" offset="1"/>
    </linearGradient>
    <linearGradient id="linearGradient3039" y2="505.95" gradientUnits="userSpaceOnUse" x2="387.96" gradientTransform="matrix(1.7227 0 0 1.7673 -281.65 -88.927)" y1="503.02" x1="397.56">
      <stop id="stop3650" stop-color="#fff" offset="0"/>
      <stop id="stop3652" stop-color="#fff" stop-opacity="0" offset="1"/>
    </linearGradient>
    <linearGradient id="linearGradient3042" y2="517.22" gradientUnits="userSpaceOnUse" x2="391.24" gradientTransform="matrix(1.7227 0 0 1.7673 -281.65 -88.927)" y1="517.22" x1="385.15">
      <stop id="stop3642" stop-color="#a9a9a9" offset="0"/>
      <stop id="stop3644" stop-color="#a9a9a9" stop-opacity="0" offset="1"/>
    </linearGradient>
    <radialGradient id="radialGradient3143" gradientUnits="userSpaceOnUse" cy="589.48" cx="518.58" gradientTransform="matrix(.89257 -.28812 .41805 1.363 -94.796 299.04)" r="36.556">
      <stop id="stop3544" stop-color="#fff" offset="0"/>
      <stop id="stop3546" stop-color="#fff" stop-opacity="0" offset="1"/>
    </radialGradient>
    <linearGradient id="linearGradient3183" y2="503.91" gradientUnits="userSpaceOnUse" x2="545.16" gradientTransform="matrix(1.7227 0 0 1.7673 -281.65 -88.927)" y1="500.89" x1="549.88">
      <stop id="stop3310" offset="0"/>
      <stop id="stop3314" stop-color="#818181" offset="1"/>
    </linearGradient>
  </defs>
  <g id="layer1" transform="translate(21.224 -654.93)">
    <path id="path3656" d="m670.82 812.28c-0.68841-4.905-1.1733-9.8099-2.4414-14.715-4.5777-4.493-9.4657-5.5408-14.043-7.6679l16.485 22.383z" fill="url(#linearGradient3183)" fill-rule="evenodd"/>
    <rect id="rect3473" fill-rule="evenodd" height="116.22" width="103.54" y="887.41" x="398.08" fill="#262626"/>
    <rect id="rect3471" fill-rule="evenodd" height="59.985" width="54.816" y="897.41" x="18.018"/>
    <path id="path2529" d="m462.83 616.79a24.723 31.448 0 1 1 -49.446 0 24.723 31.448 0 1 1 49.446 0z" transform="matrix(1.9127 0 0 1.7673 -171.82 -106.15)" stroke="#000" stroke-linecap="round" stroke-width="1.2115" fill="#fff"/>
    <path id="path2531" d="m698.22 983.59c0 30.503-17.441 55.259-39.269 55.259-21.827 0-39.816-24.756-39.816-55.259s19.082-54.698 40.909-54.698 38.175 24.195 38.175 54.698z" stroke="#000" stroke-linecap="round" stroke-width="2.2275" fill="#fff"/>
    <path id="path2533" d="m444.97 618.6a13.555 19.158 0 1 1 -27.11 0 13.555 19.158 0 1 1 27.11 0z" transform="matrix(1.7227 0 0 1.7673 -86.4 -109.99)" stroke="#000" stroke-linecap="round" stroke-width="1.2766" fill="#c0c0c0"/>
    <path id="path2535" d="m444.97 618.6a13.555 19.158 0 1 1 -27.11 0 13.555 19.158 0 1 1 27.11 0z" transform="matrix(1.4605 0 0 1.555 29.474 21.778)" stroke="#000" stroke-linecap="round" stroke-width="1.4781" fill="#c0c0c0"/>
    <path id="path2537" d="m444.97 618.6a13.555 19.158 0 1 1 -27.11 0 13.555 19.158 0 1 1 27.11 0z" transform="matrix(1.1679 -.88422 .33168 1.3011 -46.618 560.17)" stroke="#000" stroke-linecap="round" stroke-width="1.6544" fill="none"/>
    <path id="path2539" d="m201.43 598.47a1.5873 2.1429 0 1 1 -3.1746 0 1.5873 2.1429 0 1 1 3.1746 0z" transform="matrix(1.7227 0 0 1.7673 319.39 -74.087)" fill-rule="evenodd"/>
    <path id="path3422" d="m462.83 616.79a24.723 31.448 0 1 1 -49.446 0 24.723 31.448 0 1 1 49.446 0z" transform="matrix(1.9127 0 0 1.7673 -374.26 -100.4)" stroke="#000" stroke-linecap="round" stroke-width="1.2115" fill="#fff"/>
    <path id="path3424" d="m495.78 989.34c0 30.503-17.441 55.259-39.269 55.259-21.827 0-39.816-24.756-39.816-55.259s19.082-54.698 40.909-54.698 38.175 24.195 38.175 54.698z" stroke="#000" stroke-linecap="round" stroke-width="2.2275" fill="#fff"/>
    <path id="path3426" d="m444.97 618.6a13.555 19.158 0 1 1 -27.11 0 13.555 19.158 0 1 1 27.11 0z" transform="matrix(1.7227 0 0 1.7673 -288.83 -104.24)" stroke="#000" stroke-linecap="round" stroke-width="1.2766" fill="#c0c0c0"/>
    <path id="path3428" d="m444.97 618.6a13.555 19.158 0 1 1 -27.11 0 13.555 19.158 0 1 1 27.11 0z" transform="matrix(1.4605 0 0 1.555 -172.96 27.528)" stroke="#000" stroke-linecap="round" stroke-width="1.4781" fill="#c0c0c0"/>
    <path id="path3430" d="m444.97 618.6a13.555 19.158 0 1 1 -27.11 0 13.555 19.158 0 1 1 27.11 0z" transform="matrix(1.1679 -.88422 .33168 1.3011 -249.05 565.92)" stroke="#000" stroke-linecap="round" stroke-width="1.6544" fill="#fff"/>
    <path id="path3432" d="m201.43 598.47a1.5873 2.1429 0 1 1 -3.1746 0 1.5873 2.1429 0 1 1 3.1746 0z" transform="matrix(1.7227 0 0 1.7673 116.96 -68.337)" fill-rule="evenodd"/>
    <path id="path3211" d="m462.83 616.79a24.723 31.448 0 1 1 -49.446 0 24.723 31.448 0 1 1 49.446 0z" transform="matrix(1.9127 0 0 1.7673 -764.79 -123.13)" stroke="#000" stroke-linecap="round" stroke-width="1.2115" fill="#fff"/>
    <path id="path3213" d="m105.24 966.62c0 30.503-17.441 55.259-39.269 55.259-21.827 0-39.816-24.756-39.816-55.259s19.082-54.698 40.909-54.698 38.175 24.195 38.175 54.698z" stroke="#000" stroke-linecap="round" stroke-width="2.2275" fill="#fff"/>
    <path id="path3215" d="m444.97 618.6a13.555 19.158 0 1 1 -27.11 0 13.555 19.158 0 1 1 27.11 0z" transform="matrix(1.7227 0 0 1.7673 -679.37 -126.96)" stroke="#000" stroke-linecap="round" stroke-width="1.2766" fill="#c0c0c0"/>
    <path id="path3280" d="m444.97 618.6a13.555 19.158 0 1 1 -27.11 0 13.555 19.158 0 1 1 27.11 0z" transform="matrix(1.4605 0 0 1.555 -563.5 4.8062)" stroke="#000" stroke-linecap="round" stroke-width="1.4781" fill="#c0c0c0"/>
    <path id="path3316" d="m444.97 618.6a13.555 19.158 0 1 1 -27.11 0 13.555 19.158 0 1 1 27.11 0z" transform="matrix(1.1679 -.88422 .33168 1.3011 -639.59 543.2)" stroke="#000" stroke-linecap="round" stroke-width="1.6544" fill="#fff"/>
    <path id="path3332" d="m201.43 598.47a1.5873 2.1429 0 1 1 -3.1746 0 1.5873 2.1429 0 1 1 3.1746 0z" transform="matrix(1.7227 0 0 1.7673 -273.58 -91.059)" fill-rule="evenodd"/>
    <path id="path3436" d="m405.48 1004.2c-2.4912-70.23 3.802-85.863 44.499-83.322 59.507 9.352 39.522 74.596 56.742 92.403 41.563 4.7532 217.42-9.6484 217.42-9.6484s6.114-1.6993 7.7453-3.4054c17.396-29.068 10.812-96.016-9.405-106.13-8.5987-26.009-39.833-64.702-39.833-64.702s-104.47-148.42-149.93-162.89c-55.966-13.339-186.44-8.5134-186.44-8.5134s-267.4 4.8476-331.94 12.486c-18.064 10.477-24.342 68.675-24.342 68.675l-8.8517 89.107s3.6259 41.938 2.7662 68.675c-7.0001 21.227-2.7486 46.445 2.2129 65.269 10.494 4.6353 22.378 4.3508 40.704 7.0063 0.18754-72.765 31.316-56.546 41.65-56.804 12.52 5.2039 13.962 11.881 26.69 60.666 56.422 5.1102 280.16 33.821 310.31 31.131z" fill-rule="evenodd" stroke="#000" stroke-width="2.2275" fill="#fff"/>
    <path id="path3636" opacity=".79808" d="m-5.983 825.65c0.89067 0.0912 142.8 3.7302 177.32 4.6498 2.0151 0.0536 4.2334 4.7894-2.5849 5.0726-5.9551 0.24724-137.59-4.933-177.32-4.6498 0 0-6.4427-4.0312 2.5849-5.0726z" fill="#eee" fill-rule="evenodd"/>
    <path id="rect3335" d="m-15.353 897.04s29.867-6.2376 43.89-0.86589c5.1004 1.9537 9.0446 13.456 6.9633 18.617-10.458 25.932-9.2844 54.984-9.2844 54.984s-28.76-0.70131-39.881-6.9271c-11.412-42.364-1.6881-65.808-1.6881-65.808z" fill-rule="evenodd" stroke="#000" stroke-width="2.2275" fill="#fff"/>
    <path id="path2418" opacity="0" stroke-width="2.2275" d="m12.505 669.6c-15.745 29.104-27.603 91.735-28.599 155.4-0.99571 63.656-0.26297 69.467-0.26297 69.467s-7.7198 49.947 2.024 64.992c2.9799 4.6013 11.297 5.7751 16.461 7.3423 8.7666 2.6607 28.269 5.2993 28.269 5.2993-7.4067-50.036 3.7352-60.13 21.1-61.6 27.193-2.3031 36.493 18.884 44.028 65.271 13.896 5.5338 310.61 27.901 310.61 27.901s-8.2785-76.295 24.334-80.765c24.761-2.8741 33.172 0.48925 45.805 7.3423 17.945 10.516 30.629 82.968 30.629 82.968s187.94-0.1322 223.54-11.553c18.787-31.103 11.927-84.944-2.2644-102.88-14.509-6.4879-18.46-40.757-118.79-166.04-30.677-28.215-49.839-68.934-111.65-72.689-31.293-1.9007-138.13-3.6712-138.13-3.6712l-337.79 12.48s-7.9456-1.7769-9.304 0.73422z"/>
    <path id="rect3219" d="m413.88 727.62c5.8885-2.7943 177.53-3.767 188.95 6.3017 10.824 10.372 85.11 95.782 74.976 101.83-22.233 7.236-174.14-0.74963-188.92-5.2858-11.731-4.3502-76.419-96.662-75.001-102.84z" stroke="#000" stroke-linecap="round" stroke-width="2.2275" fill="#fff"/>
    <path id="rect3189" d="m339.25 727.29c30.783-5.3547 46.823 5.3002 54.29 10.499 57.148 68.942 58.187 101.42 57.128 103.61-3.3923 7.0243-64.76 7.7718-100.67-7.5303-14.369-7.4471-14.596-104.25-10.751-106.58z" stroke="#000" stroke-linecap="round" stroke-width="2.2275" fill="#fff"/>
    <path id="path3540" opacity=".92788" d="m574.19 912.83c-17.697 18.235 13.901 79.094 31.509 80.564 0 5.6523 49.454-8.9415 50.415-9.6975 3.6285-2.8558 2.5097-19.812 1.2119-19.146l-7.5137-2.2379-28.479 0.80811 73.077-6.6515-1.5754-7.3975-85.196-31.268 57.444-4.9731c-30.297 0-61.562-2.9782-90.892 0z" fill="url(#radialGradient3143)" fill-rule="evenodd"/>
    <path id="rect3197" d="m611.95 917.79c3.5366-3.1494 90.69-5.183 102.48-2.4742 3.5537 4.6614 5.04 21.623 4.8902 32.973-11.668 1.5605-79.602 4.4984-100.41 4.9901-3.4026-11.594-11.171-30.358-6.9634-35.489z" stroke="#020202" stroke-linecap="round" stroke-width="2.2275" fill="#fff"/>
    <rect id="rect3334" opacity="0" height="33.621" width="12.258" y="840.46" x="291.75" stroke-width="2.2275"/>
    <rect id="rect3344" opacity="0" height="37.856" width="20.764" y="840.2" x="288" stroke-width="2.2275"/>
    <path id="rect3350" d="m292.32 841.85c2.5492-2.5912 9.9527-2.2096 11.225-0.48698 2.5977 2.8674 0.97841 26.295-0.6597 32.636-3.0848 1.1469-5.9518 1.8265-9.1023-0.39213-2.1486-2.5098-3.556-29.931-1.4632-31.757z" fill-rule="evenodd" stroke="#000" stroke-width="2.2275" fill="#fff"/>
    <path id="rect3366" d="m293.31 842.46c3.4769-1.3201 6.6216-1.1376 9.3133-0.53701 0.40616 1.4262 0.7217 2.6805 0.78061 4.1842-5.5562-2.2815-4.2434 8.6399-4.8015 10.51-1.3152 4.407-2.2667 4.7298-2.8272 0.74744-0.24957-1.7732 0.67575-12.317-2.8271-11.3-0.0116-1.5222 0.0702-2.795 0.36181-3.6047z" fill-rule="evenodd" stroke="#000" stroke-width="2.2275" fill="#fff"/>
    <path id="path3378" d="m330.46 842.34c2.5492-2.5912 9.9527-2.2096 11.225-0.48701 2.5977 2.8675 0.97842 26.295-0.65967 32.636-3.0848 1.1469-5.9518 1.8265-9.1024-0.39215-2.1486-2.5098-3.556-29.931-1.4632-31.757z" fill-rule="evenodd" stroke="#000" stroke-width="2.2275" fill="#fff"/>
    <path id="path3380" d="m331.45 842.95c3.4769-1.32 6.6216-1.1376 9.3133-0.53698 0.40617 1.4262 0.7217 2.6805 0.78062 4.1842-5.5562-2.2815-4.2434 8.6399-4.8015 10.51-1.3152 4.407-2.2667 4.7298-2.8272 0.74745-0.24958-1.7732 0.67574-12.317-2.8271-11.3-0.0116-1.5222 0.0702-2.795 0.36182-3.6047z" fill-rule="evenodd" stroke="#000" stroke-width="2.2275" fill="#fff"/>
    <path id="rect3438" d="m620.12 957.06c39.076-1.8325 91.165-5.1118 92.878-4.61 1.691 0.4954 1.9112 6.3883 1.2976 7.1434-0.57443 0.70694-58.162 4.0595-92.39 4.8448-1.5311-1.9358-1.7862-4.9188-1.7862-7.3782z" fill-rule="evenodd" stroke="#000" stroke-width="2.2275" fill="#fff"/>
    <path id="path3442" d="m632 1000.6s76.124 1.6283 75.426-11.989c-15.967 1.9973-73.936 5.2375-77.869 5.0341 0.27986 4.5403 2.4423 6.9547 2.4423 6.9547z" fill-rule="evenodd" stroke="#000" stroke-width="2.2275" fill="#fff"/>
    <path id="path3452" d="m317.55 986.32-145.88-13.941 0.34934-9.1488-0.22603-25.082-1.3253-58.814 3.0753-47.236c1.9632-34.406-3.5825-69.562 3.2612-103.97l145 0.28139-7.2192 106.74-2.5479 112.83 2.3356 27.011 3.185 11.327z" stroke="#000" stroke-width="2.2275" fill="none"/>
    <path id="rect3186" d="m190 728.18c4.394-0.17561 123.6-0.45966 124.91-0.46432 1.8503 3.0726-6.9614 57.784-8.1557 103.75-4.9387 0.0798-103.5-0.039-121.36-7.8669-3.935-12.803-2.1482-84.547 4.6092-95.415z" stroke="#000" stroke-linecap="round" stroke-width="2.2275" fill="#fff"/>
    <path id="path3369" opacity=".63462" d="m-19.915 920.54c11.926 4.4148 47.147 6.472 50.395 7.1735 0.09057 1.2017-2.523 0.29658-3.0017 4.0119-27.38-1.674-39.96-4.8382-45.474-6.0977-0.9349-2.1855-2.3598-2.7988-1.9197-5.0877z" fill="#f5f6f6" fill-rule="evenodd"/>
    <path id="path3634" d="m185.12 719.05s3.6914-14.196 4.8023-20.383c1.1298-6.2925 2.6366-21.156 2.6366-21.156-3.2478 13.977-5.6975 27.818-7.4388 41.538z" fill="#fdfdfd" fill-rule="evenodd"/>
    <path id="path3395" d="m327.54 674.52-135.09 2.9839c-3.7987 13.923-6.1404 27.845-7.4297 41.768l136.38 0.006 6.1403-44.759z" stroke="#000" stroke-width="2.2275" fill="none"/>
    <path id="path3397" d="m355.33 658.28c23.653-0.38284 46.688 27.751 69.483 66.972" stroke="#000" stroke-width="2.2275" fill="none"/>
    <path id="path3399" d="m426.76 657.94c52.621 3.729 65.444 39.213 89.197 65.977" stroke="#000" stroke-width="2.2275" fill="none"/>
    <path id="path3405" d="m1.4556 721.06 175.93-1.9066 8.4844-41.807-170.79 3.6758c-7.2882 11.24-12.903 23.76-13.624 40.04z" stroke="#000" stroke-width="2.2275" fill="none"/>
    <path id="path3407" d="m471.7 927.51c5.6385-14.228 9.7861-29.023 21.998-30.888-0.61535-8.9325 5.3787-13.977 9.0026-19.648" stroke="#000" stroke-width="2.2275" fill="none"/>
    <path id="path3409" d="m476.37 894.4c2.5209 4.5148 236.4 10.82 235.69 3.4852l11.041-3.4852" stroke="#000" stroke-width="2.2275" fill="none"/>
    <path id="path3411" d="m711.63 897.89c6.4103 2.863 13.253 5.2828 15.288 12.634 4.6752 23.751 6.3268 47.846 0.84931 72.754-2.9701 3.5618-6.0264 6.9909-6.7945 13.941 0.62933 0.98412-1.1963 3.2276-5.0959 6.5348" stroke="#000" stroke-width="2.2275" fill="none"/>
    <path id="path3413" d="m574.89 900.06c7.2405 3.6921 15.714 6.7518 18.685 12.634 8.6694 31.389 24.658 69.708 19.959 88.438 2.1333 2.6088 3.616 5.5513 1.274 10.456" stroke="#000" stroke-width="2.2275" fill="none"/>
    <path id="path3415" d="m574.89 900.06c-1.7213-14.153-12.759-28.255-24.63-43.566" stroke="#000" stroke-width="2.2275" fill="none"/>
    <path id="path3475" opacity=".625" d="m333.38 668.44c-3.991 16.178-4.8537 40.716-4.3711 48.223 25.283 2.3807 57.046 1.4831 67.612 12.822 35.252 37.815 55.897 83.518 68.369 133.63 9.6103 10.97 19.17 9.1839 31.17 11.573-18.808-26.346-14.692-22.234-12.55-41.019-49.19-56.5-114.98-178.1-150.23-165.23z" fill="#fff" fill-rule="evenodd"/>
    <path id="path3417" d="m486.07 834.28c-3.186 12.939-9.0876 24.338 16.455 43.324 14.038 7.4671 61.047 16.51 68.547 11.569-5.5412-13.534-13.92-23.043-21.563-33.558-21.091-0.98814-42.348-9.9409-63.439-21.335z" fill-rule="evenodd" stroke="#000" stroke-width="2.2275" fill="#fff"/>
    <path id="path3427" d="m544.8 881.89c-17.432 3.0651-36.838-5.7692-56.873-18.399" stroke="#000" stroke-width="2.2275" fill="none"/>
    <path id="path3435" d="m466.55 541.76a4.473 6.0996 0 1 1 -8.9461 0 4.473 6.0996 0 1 1 8.9461 0z" fill="#808080" transform="matrix(1.7227 0 0 1.7673 -283.36 -89.557)" fill-rule="evenodd"/>
    <path id="path3446" d="m507.03 857.61 4.9124-0.59846-0.61404 21.544-7.0001-4.071c-4.4286-3.7915-3.5596-16.101 2.7018-16.875z" fill="#808080" fill-rule="evenodd"/>
    <path id="path3419" d="m466.55 541.76a4.473 6.0996 0 1 1 -8.9461 0 4.473 6.0996 0 1 1 8.9461 0z" fill-rule="evenodd" transform="matrix(1.7227 0 0 1.7673 -281.65 -88.927)" stroke="#000" stroke-width="1.2766" fill="#fff"/>
    <path id="path3433" d="m477.12 545.55a3.3887 5.0152 0 1 1 -6.7773 0 3.3887 5.0152 0 1 1 6.7773 0z" fill="#808080" transform="matrix(1.7227 0 0 1.7673 -283.24 -89.683)" fill-rule="evenodd"/>
    <path id="rect3443" d="m527.91 866.21 4.9124-0.50395-0.61407 18.142-6.2633-2.8978c-3.4462-3.8294-2.3315-13.134 1.9649-14.741z" fill="#808080" fill-rule="evenodd"/>
    <path id="path3421" d="m477.12 545.55a3.3887 5.0152 0 1 1 -6.7773 0 3.3887 5.0152 0 1 1 6.7773 0z" fill-rule="evenodd" transform="matrix(1.7227 0 0 1.7673 -281.65 -89.305)" stroke="#000" stroke-width="1.2766" fill="#fff"/>
    <path id="path3423" d="m570.66 889.38c-9.1963-1.9379-17.568-3.0237-25.859-7.4387-0.10426-6.78-1.9947-12.644-4.0305-18.433 1.3235-7.6878 6.4461-5.3535 9.8074-7.6658" stroke="#000" stroke-width="2.2275" fill="none"/>
    <path id="path3425" d="m486.45 834.5c9.9656 8.2114 7.9846 14.034 54.171 29.488l0.24579-0.50407" stroke="#000" stroke-width="2.2275" fill="none"/>
    <path id="path3481" opacity=".61058" d="m-1.587 729.94-6.2408 46.018-0.39006 49.619 6.6309-95.637z" fill="#fff" fill-rule="evenodd"/>
    <path id="path3431" d="m-1.4689 730.12c-5.1697 31.859-8.3538 62.239-7.4334 94.991l181.46 4.3903c0.37157-32.929-2.9789-69.542 2.935-101.47l-176.96 2.0847z" stroke="#000" stroke-width="2.2275" fill="none"/>
    <path id="path3437" d="m515.02 859.41c4.6774 2.203 8.6765 13.034 0.24579 18.142" stroke="#000" stroke-width="2.2275" fill="none"/>
    <path id="path3441" d="m535.28 867.72c4.9002 1.9176 4.6781 13.423-0.85966 14.363" stroke="#000" stroke-width="2.2275" fill="none"/>
    <path id="path3485" d="m692.02 856.05c2.9987-0.0877 16.855 27.578 17.507 31.814 0.67292 4.3725 10.219 2.6306 9.993-1.4206-6.7874-13.085-14.757-25.927-23.144-38.684-1.7198 4.5503-3.2754 8.0058-4.3555 8.2902z" fill="#dcdcdc" fill-rule="evenodd"/>
    <path id="path3456" d="m695.66 846.49c0.56753 3.3136-1.2628 6.6273-3.23 9.9409 9.9169 12.448 13.324 22.671 18.411 33.468 4.2096 0.60525 9.4798-0.54263 9.4836-3.3893" stroke="#000" stroke-width="2.2275" fill="#fff"/>
    <path id="path3458" d="m542.97 1004.5c0.39111 1.4468 63.987 0.1692 70.414-2.6509 47.736 1.889 71.706-4.1972 107.56-5.6332 4.8571-1.3564 8.772-0.29657 15.181-5.6332" stroke="#000" stroke-width="2.2275" fill="none"/>
    <path id="path3460" d="m558.15 946.51c-1.2306 6.4063-0.0609 12.813 3.876 19.219 5.5987 1.0338 11.197 2.7901 16.796 1.3254l23.902-1.6568c1.1734-5.9645 1.2457-11.929-3.553-17.894-8.5056-0.11037-17.011-0.22104-25.517-0.33138l-15.504-0.6627z" fill-rule="evenodd" stroke="#000" stroke-width="2.2275" fill="#fff"/>
    <path id="path3462" d="m616.29 946.18 102.39-4.64" stroke="#000" stroke-width="2.2275" fill="none"/>
    <path id="path3464" d="m614.03 937.89 104.01-3.3136" stroke="#000" stroke-width="2.2275" fill="none"/>
    <path id="path3466" d="m611.77 929.28c3.23 0 105.3-3.9764 105.3-3.9764" stroke="#000" stroke-width="2.2275" fill="none"/>
    <path id="path3499" d="m664.4 914.34c5.0084 11.193 6.7628 21.076 8.6926 36.827" stroke="#000" stroke-width="2.2275" fill="none"/>
    <path id="path3200" d="m675.97 932.72c0 5.0761-2.1812 9.579-5.789 9.579-3.6079 0-6.785-4.6306-7.283-9.579-0.50812-5.0492 2.0567-8.5572 5.6646-8.5572s7.4075 3.4811 7.4075 8.5572z" stroke="#000" stroke-linecap="round" stroke-width="2.2275" fill="#fff"/>
    <path id="path3550" opacity=".59615" d="m331.53 743.87c1.009 28.714-2.7853 61.79 12.346 93.349l57.156 20.405c25.915 4.3299 25.021-11.142 16.232-9.1473l-41.152-6.3327-28.349-8.2091c-14.346-31.194-8.5629-62.858-11.66-94.053-1.5242-7.7981-3.0483-5.0778-4.5725 3.9873z" fill="#fff" fill-rule="evenodd"/>
    <path id="path3450" d="m317.11 986.82c5.5206 1.307 81.548 7.5348 81.548 7.5348s-7.6699-82.441 34.397-80.354c5.5466-21.874 4.6712-67.527 4.6712-67.527s-70.589-1.0553-88.329-13.941c-18.029-20.756-11.093-105.41-11.093-105.41l-14.49 0.68566-7.9452 97.122-2.9315 119.13 4.1713 42.759z" stroke="#000" stroke-width="2.2275" fill="none"/>
    <path id="path3403" d="m451.32 840.29c6.4156 1.6086 30.414-16.541 28.116-18.898" stroke="#000" stroke-width="2.2275" fill="none"/>
    <path id="path3477" opacity=".66827" d="m357.88 658.95c25.451 9.0248 46.438 39.869 50.809 42.92 3.058 1.7635 0.5606-1.1273 0.0204-1.937-16.615-22.636-28.342-36.482-48.325-41.181l-2.5042 0.19774z" fill="#fff" fill-rule="evenodd"/>
    <path id="path3479" opacity=".66827" d="m432.42 658.33c33.013 6.877 61.909 34.895 72.739 58.547 1.5894 2.3114 3.3873 0.25191 2.629-1.3587-20.849-30.398-33.618-48.107-72.863-57.386l-2.5042 0.19774z" fill="#fff" fill-rule="evenodd"/>
    <path id="path3483" opacity=".61058" d="m14.795 682.12-7.2157 18.01-5.6557 20.81c1.4459-12.026 3.2689-24.174 12.872-38.815z" fill="#fff" fill-rule="evenodd"/>
    <path id="path3491" d="m618.69 917.15c8.05 19.665 8.1357 26.257 10.141 36.001v-0.33028" stroke="#000" stroke-width="2.2275" fill="none"/>
    <path id="path3493" d="m629.95 915.83c4.3756 6.5062 8.5337 21.274 10.463 36.662" stroke="#000" stroke-width="2.2275" fill="none"/>
    <path id="path3495" d="m642.51 915.17c6.6477 12.215 7.3387 23.188 9.1756 36.662" stroke="#000" stroke-width="2.2275" fill="none"/>
    <path id="path3497" d="m652.97 914.34c4.9653 8.2859 8.7155 25.085 9.6584 37.157" stroke="#000" stroke-width="2.2275" fill="none"/>
    <path id="path3501" d="m674.38 914.51c4.5337 7.777 7.2582 23.891 8.0487 35.836" stroke="#000" stroke-width="2.2275" fill="none"/>
    <path id="path3503" d="m684.2 914.34c5.127 10.946 4.1869 23.67 6.278 35.506" stroke="#000" stroke-width="2.2275" fill="none"/>
    <path id="path3505" d="m694.02 914.34c3.5735 10.963 3.497 23.424 5.1512 35.175" stroke="#000" stroke-width="2.2275" fill="none"/>
    <path id="path3507" d="m702.55 914.34c3.2581 10.825 3.225 23.337 4.8292 35.01" stroke="#000" stroke-width="2.2275" fill="none"/>
    <path id="path3509" d="m709.31 914.51c3.3855 10.997 3.7062 22.624 5.1512 34.019" stroke="#000" stroke-width="2.2275" fill="none"/>
    <path id="path3511" d="m616.42 1004.3c0.22337-0.6665 10.391-0.9125 16.921-0.6177 4.0251 0.1817 1.1008 2.0317-0.66637 2.4551-1.7671 0.4235-7.2936-0.4099-15.499 0.9943 0.55958-0.5113 0.59435-2.768-0.7563-2.8317z" fill="#eee" fill-rule="evenodd"/>
    <path id="path3518" d="m426.12 783.68c-2.6033 28.334-11.831 43.755-20.826 59.631 15.024 2.3565 30.047 3.0451 45.071-0.63778-0.92501-19.003-9.535-37.553-24.245-58.993z" fill-rule="evenodd" stroke="#000" stroke-width="2.2275" fill="#fff"/>
    <path id="rect3525" d="m386.78 803.54c1.6886-0.33429 3.873-0.30561 5.5616-0.63987-4.1182 14.87-6.0521 29.096-5.0039 44.555l-5.3916-1.3275c-0.27229-14.427-0.2088-29.18 4.8339-42.588z" fill="url(#linearGradient3042)" fill-rule="evenodd"/>
    <path id="rect3522" d="m388.35 799.66c2.7159-1.1488 6.5774-2.486 9.7127-2.9176 3.8868-1.3168 15.906 2.5147 16.66 4.1016-3.617 1.386-25.012 3.285-28.029 2.7323l1.6561-3.9163z" fill="url(#linearGradient3039)" fill-rule="evenodd"/>
    <path id="path3528" opacity=".57212" d="m497.65 907.72c0.23793 3.2448 0.2653 6.4896 7.6522 9.7344 4.6455-0.0917 8.3801-3.9211 12.244-7.2223-6.6748-0.9695-15.444-8.3838-19.896-2.5121z" fill="#fff" fill-rule="evenodd"/>
    <path id="path3530" d="m554.99 862.76c11.595 13.468 21.219 32.08 19.791 36.856 45.184 1.4346 90.542 1.2625 135.7-0.0451-14.632-16.211-41.681-30.298-109.68-37.385l-45.817 0.57414z" fill="url(#linearGradient3035)"/>
    <path id="path3584" d="m-5.998 873.33 175.93 5.46" stroke="#000" stroke-width="2.2275" fill="none"/>
    <path id="path3586" d="m181.26 878.97c1.9991 0.51272 125.34 5.9728 125.34 5.9728" stroke="#000" stroke-width="2.2275" fill="none"/>
    <path id="path3588" d="m320.45 885.92 109.09 5.4143" stroke="#000" stroke-width="2.2275" fill="none"/>
    <path id="path3590" d="m409.51 834.54-0.78922 9.0155 40.566-2.717-0.63139-10.868-39.146 4.5695z" stroke="#000" stroke-width="2.2275" fill="none"/>
    <path id="path3203" d="m329.06 721.16c73.498 0.50541 67.136 1.0864 123.39 93.953" stroke="#000" stroke-width="2.2275" fill="none"/>
    <path id="path3813" d="m549.69 855.1 143.07 1.1228" stroke="#000" stroke-width="2.2275" fill="none"/>
    <path id="rect3515" d="m388.57 799.62c6.7735-2.7262 14.693-5.213 26.321 1.1912 0.61776 4.1986 0.5682 8.2923 0.12027 12.334-0.44792 4.0413-1.2942 8.0301-2.27 12.019-0.97576 3.9888-1.8524 18.532-2.8182 22.573-0.96578 4.0413-14.225 2.4022-28.191-1.4282-0.001-17.737 1.0906-34.007 6.8383-46.689z" fill-rule="evenodd" stroke="#020202" stroke-linecap="round" stroke-width="2.2275" fill="#fff"/>
  </g>
  <metadata>
    <rdf:RDF>
      <cc:Work>
        <dc:format>image/svg+xml</dc:format>
        <dc:type rdf:resource="http://purl.org/dc/dcmitype/StillImage"/>
        <cc:license rdf:resource="http://creativecommons.org/licenses/publicdomain/"/>
        <dc:publisher>
          <cc:Agent rdf:about="http://openclipart.org/">
            <dc:title>Openclipart</dc:title>
          </cc:Agent>
        </dc:publisher>
        <dc:title>Van Line Art</dc:title>
        <dc:date>2010-08-03T19:05:29</dc:date>
        <dc:description>automobile, clip art, clipart, line art, transportation, van, </dc:description>
        <dc:source>http://openclipart.org/detail/76771/van-line-art-by-gammillian</dc:source>
        <dc:creator>
          <cc:Agent>
            <dc:title>gammillian</dc:title>
          </cc:Agent>
        </dc:creator>
        <dc:subject>
          <rdf:Bag>
            <rdf:li>automobile</rdf:li>
            <rdf:li>clip art</rdf:li>
            <rdf:li>clipart</rdf:li>
            <rdf:li>line art</rdf:li>
            <rdf:li>transportation</rdf:li>
            <rdf:li>van</rdf:li>
          </rdf:Bag>
        </dc:subject>
      </cc:Work>
      <cc:License rdf:about="http://creativecommons.org/licenses/publicdomain/">
        <cc:permits rdf:resource="http://creativecommons.org/ns#Reproduction"/>
        <cc:permits rdf:resource="http://creativecommons.org/ns#Distribution"/>
        <cc:permits rdf:resource="http://creativecommons.org/ns#DerivativeWorks"/>
      </cc:License>
    </rdf:RDF>
  </metadata>
</svg>
